<svg width="111" height="45" viewBox="0 0 111 45" fill="none" xmlns="http://www.w3.org/2000/svg">
<g clip-path="url(#clip0_724_16014)">
<path d="M2.27177 39.1748L0.164062 44.8945H1.35347L1.78201 43.7224H3.88097L4.31825 44.8945H5.60387L3.48742 39.1748H2.27177ZM2.14933 42.7177L2.83149 40.7259L3.51365 42.7177H2.14933Z" fill="white"/>
<path d="M11.5098 42.0472C11.3437 41.9062 11.1338 41.7917 10.8976 41.7035C10.6528 41.6154 10.3816 41.5449 10.0755 41.4832C9.62952 41.3951 9.29718 41.2893 9.08728 41.1747C8.87739 41.0513 8.77244 40.8927 8.77244 40.6724C8.77244 40.4961 8.85115 40.3551 8.99983 40.2582C9.1485 40.1524 9.38464 40.0995 9.70823 40.0995C10.0231 40.0995 10.2505 40.1436 10.3816 40.2405C10.5128 40.3375 10.609 40.4785 10.6528 40.6812H11.8597C11.8334 40.3551 11.7372 40.0731 11.5798 39.8263C11.4224 39.5884 11.1862 39.4033 10.8801 39.2623C10.574 39.1301 10.1805 39.0596 9.70823 39.0596C9.27094 39.0596 8.88613 39.1301 8.57129 39.2623C8.2477 39.3945 8.00282 39.5884 7.82791 39.8351C7.653 40.0819 7.56554 40.3639 7.56554 40.6988C7.56554 41.0602 7.6355 41.3598 7.78418 41.5889C7.92411 41.8269 8.13401 42.012 8.41387 42.1442C8.69373 42.2764 9.01732 42.3821 9.40213 42.4614C9.73446 42.5231 9.99683 42.5936 10.2067 42.673C10.4166 42.7435 10.5653 42.8316 10.6615 42.9374C10.7577 43.0431 10.8102 43.1753 10.8102 43.334C10.8102 43.5278 10.7227 43.6865 10.5566 43.7922C10.3904 43.898 10.1105 43.9509 9.71697 43.9509C9.34091 43.9509 9.06979 43.898 8.92112 43.7834C8.77244 43.6689 8.66749 43.5102 8.62376 43.2899H7.39062C7.40812 43.6248 7.50432 43.9244 7.67923 44.18C7.85415 44.4356 8.10777 44.6295 8.44885 44.7705C8.78119 44.9115 9.20098 44.982 9.70823 44.982C10.198 44.982 10.6178 44.9115 10.9589 44.7705C11.2999 44.6295 11.5623 44.4268 11.746 44.1624C11.9296 43.898 12.0171 43.5983 12.0171 43.2458C12.0171 42.9638 11.9734 42.7347 11.8859 42.532C11.7984 42.3557 11.676 42.1882 11.5098 42.0472Z" fill="white"/>
<path d="M18.4542 42.0472C18.288 41.9062 18.0782 41.7917 17.842 41.7035C17.5971 41.6154 17.326 41.5449 17.0199 41.4832C16.5739 41.3951 16.2416 41.2893 16.0317 41.1747C15.8218 41.0513 15.7168 40.8927 15.7168 40.6724C15.7168 40.4961 15.7955 40.3551 15.9442 40.2582C16.0929 40.1524 16.329 40.0995 16.6526 40.0995C16.9674 40.0995 17.1948 40.1436 17.326 40.2405C17.4572 40.3375 17.5534 40.4785 17.5971 40.6812H18.804C18.7778 40.3551 18.6816 40.0731 18.5242 39.8263C18.3668 39.5884 18.1306 39.4033 17.8245 39.2623C17.5184 39.1301 17.1249 39.0596 16.6526 39.0596C16.2153 39.0596 15.8305 39.1301 15.5157 39.2623C15.1921 39.3945 14.9472 39.5884 14.7723 39.8351C14.5974 40.0819 14.5099 40.3639 14.5099 40.6988C14.5099 41.0602 14.5799 41.3598 14.7286 41.5889C14.8685 41.8269 15.0784 42.012 15.3582 42.1442C15.6381 42.2764 15.9617 42.3821 16.3465 42.4614C16.6788 42.5231 16.9412 42.5936 17.1511 42.673C17.361 42.7435 17.5097 42.8316 17.6059 42.9374C17.7021 43.0431 17.7546 43.1753 17.7546 43.334C17.7546 43.5278 17.6671 43.6865 17.5009 43.7922C17.3348 43.898 17.0549 43.9509 16.6614 43.9509C16.2853 43.9509 16.0142 43.898 15.8655 43.7834C15.7081 43.6689 15.6119 43.5102 15.5681 43.2899H14.3438C14.3612 43.6248 14.4574 43.9244 14.6324 44.18C14.8073 44.4356 15.0609 44.6295 15.402 44.7705C15.7343 44.9115 16.1541 44.982 16.6614 44.982C17.1511 44.982 17.5709 44.9115 17.912 44.7705C18.2531 44.6295 18.5154 44.4268 18.6991 44.1624C18.8828 43.898 18.9702 43.5983 18.9702 43.2458C18.9702 42.9638 18.9265 42.7347 18.839 42.532C18.7516 42.3557 18.6204 42.1882 18.4542 42.0472Z" fill="white"/>
<path d="M21.5762 44.8945H25.538V43.881H22.7918V42.4445H25.2931V41.4662H22.7918V40.1883H25.538V39.1748H21.5762V44.8945Z" fill="white"/>
<path d="M27.793 40.1883H29.6208V44.8945H30.8277V40.1883H32.6556V39.1748H27.793V40.1883Z" fill="white"/>
<path d="M41.6378 42.4004L39.9061 39.1748H38.6992V44.8945H39.9061V41.2635L41.2442 43.7576H41.9701L43.3169 41.2635V44.8945H44.5326V39.1748H43.3607L41.6378 42.4004Z" fill="white"/>
<path d="M48.9671 39.1748L46.8594 44.8945H48.0488L48.4773 43.7224H50.5763L51.0136 44.8945H52.2992L50.1827 39.1748H48.9671ZM48.8446 42.7177L49.5268 40.7259L50.209 42.7177H48.8446Z" fill="white"/>
<path d="M58.2729 42.8587L55.7629 39.1748H54.6172V44.8945H55.8241V41.2195L58.3341 44.8945H59.471V39.1748H58.2729V42.8587Z" fill="white"/>
<path d="M63.9222 39.1748L61.8145 44.8945H63.0039L63.4324 43.7224H65.5314L65.9686 44.8945H67.2543L65.1378 39.1748H63.9222ZM63.7997 42.7177L64.4819 40.7259L65.164 42.7177H63.7997Z" fill="white"/>
<path d="M71.95 42.761H73.1045C73.0782 43.043 73.0083 43.2634 72.8858 43.4485C72.7634 43.6247 72.6059 43.7569 72.4223 43.8362C72.2299 43.9155 72.02 43.9596 71.7926 43.9596C71.6177 43.9596 71.4515 43.9244 71.2854 43.8627C71.1192 43.801 70.9793 43.6952 70.8393 43.5454C70.7081 43.4044 70.6032 43.2105 70.5245 42.9725C70.4458 42.7346 70.4108 42.4349 70.4108 42.0824V41.915C70.4108 41.4655 70.472 41.113 70.5944 40.8486C70.7169 40.5842 70.8743 40.3991 71.0842 40.2845C71.2854 40.17 71.504 40.1171 71.7489 40.1171C71.8976 40.1171 72.0462 40.1435 72.1949 40.1876C72.3348 40.2316 72.466 40.3198 72.5885 40.4432C72.7109 40.5665 72.8071 40.7428 72.8771 40.972H74.1452C74.0927 40.6547 73.9965 40.3815 73.8653 40.1435C73.7341 39.9056 73.5592 39.7117 73.3581 39.553C73.1569 39.3944 72.912 39.2798 72.6497 39.2005C72.3786 39.1212 72.0812 39.0859 71.7576 39.0859C71.4078 39.0859 71.0842 39.1388 70.7694 39.2534C70.4545 39.3591 70.1834 39.5354 69.9385 39.7646C69.6936 39.9937 69.5012 40.2845 69.3701 40.6459C69.2301 41.0072 69.1602 41.4302 69.1602 41.9326V42.1C69.1602 42.7963 69.2739 43.3515 69.5012 43.7834C69.7286 44.2152 70.0435 44.5237 70.4458 44.7264C70.8393 44.9291 71.2941 45.026 71.7926 45.026C72.1687 45.026 72.501 44.9731 72.8071 44.8586C73.1132 44.744 73.3756 44.5853 73.5942 44.3562C73.8129 44.1271 73.979 43.845 74.1015 43.5013C74.2152 43.1576 74.2764 42.7434 74.2764 42.2675V41.9414H71.9675V42.761H71.95Z" fill="white"/>
<path d="M76.8828 44.8945H80.8359V43.881H78.0985V42.4445H80.5997V41.4662H78.0985V40.1883H80.8359V39.1748H76.8828V44.8945Z" fill="white"/>
<path d="M86.4503 42.4004L84.7186 39.1748H83.5117V44.8945H84.7186V41.2635L86.0567 43.7576H86.7826L88.1294 41.2635V44.8945H89.3451V39.1748H88.1644L86.4503 42.4004Z" fill="white"/>
<path d="M92.2402 44.8945H96.202V43.881H93.4559V42.4445H95.9571V41.4662H93.4559V40.1883H96.202V39.1748H92.2402V44.8945Z" fill="white"/>
<path d="M102.525 42.8587L100.015 39.1748H98.8691V44.8945H100.067V41.2195L102.577 44.8945H103.723V39.1748H102.525V42.8587Z" fill="white"/>
<path d="M106.137 40.1883H107.965V44.8945H109.18V40.1883H110.999V39.1748H106.137V40.1883Z" fill="white"/>
<path d="M73.8666 27.6557L54.8973 0L35.9279 27.6469L29.5524 18.3666L19.6348 32.8202H23.168L29.5524 23.5135L34.1613 30.2203L32.3685 32.8202H39.4787L37.6858 30.2203L54.8973 5.14689L72.1 30.2291L70.3246 32.8202H77.4174L75.6333 30.2291L80.2422 23.5135L86.6266 32.8202H90.1598L80.2422 18.3666L73.8666 27.6557Z" fill="white"/>
<path d="M9.74267 21.213V27.5497C9.74267 29.6913 8.37835 30.4756 6.31437 30.4756C4.20667 30.4756 2.90356 29.6648 2.90356 28.0344V27.6819H0V28.0961C0 31.2688 2.26513 33.0667 6.41932 33.0667C10.3724 33.0667 12.8736 31.3922 12.8736 27.7347V18.6748H8.01103L9.74267 21.213Z" fill="white"/>
<path d="M62.4882 28.9245C62.4882 28.2812 62.3395 27.7083 62.0509 27.2059C61.7623 26.7036 61.3425 26.2982 60.8003 25.9809C60.4504 25.7782 60.0481 25.6196 59.6109 25.505C59.8557 25.4081 60.0831 25.3023 60.2843 25.1701C60.6428 24.9498 60.9489 24.6854 61.2026 24.3945C61.4562 24.0949 61.6486 23.7688 61.771 23.4163C61.8935 23.0549 61.9634 22.6936 61.9634 22.3146C61.9634 21.7506 61.8585 21.2394 61.6399 20.79C61.4212 20.3405 61.1239 19.9615 60.7303 19.6443C60.3368 19.3358 59.8557 19.0978 59.296 18.9304C58.7363 18.7629 58.0891 18.6748 57.372 18.6748H47.3145L49.0548 21.213V32.8199H57.5994C58.6313 32.8199 59.5059 32.6613 60.2405 32.344C60.9664 32.0267 61.5262 31.5773 61.911 30.9956C62.2958 30.4227 62.4882 29.7265 62.4882 28.9245ZM52.177 21.2571H56.7685C56.9259 21.2571 58.7363 21.2571 58.7363 22.7906C58.7363 24.4122 56.9347 24.3945 56.7248 24.3945H52.177V21.2571ZM57.0746 30.2377H52.177V26.9856H57.0484C57.2058 26.9856 59.1561 26.9856 59.1561 28.5808C59.1561 30.2553 57.2845 30.2377 57.0746 30.2377Z" fill="white"/>
<path d="M101.599 30.2377V18.6748H96.7363L98.468 21.213V32.8199H111.001V30.2377H101.599Z" fill="white"/>
</g>
<defs>
<clipPath id="clip0_724_16014">
<rect width="111" height="45" fill="white"/>
</clipPath>
</defs>
</svg>
