<svg xmlns="http://www.w3.org/2000/svg" viewBox="0 0 800 500">
  <defs>
    <linearGradient id="bg" x1="0" y1="0" x2="0" y2="1">
      <stop offset="0%" stop-color="#0A1628"/>
      <stop offset="100%" stop-color="#132240"/>
    </linearGradient>
  </defs>
  <!-- Background -->
  <rect width="800" height="500" fill="url(#bg)" rx="12"/>

  <!-- Top bar -->
  <rect x="20" y="20" width="760" height="40" rx="6" fill="#1A2D4A" opacity="0.8"/>
  <circle cx="46" cy="40" r="6" fill="#E8A838"/>
  <rect x="64" y="34" width="80" height="12" rx="3" fill="#2A4060"/>
  <rect x="160" y="34" width="60" height="12" rx="3" fill="#2A4060"/>
  <rect x="236" y="34" width="70" height="12" rx="3" fill="#2A4060"/>

  <!-- Chart area -->
  <rect x="20" y="72" width="480" height="260" rx="8" fill="#111E35"/>
  <!-- Grid lines -->
  <line x1="50" y1="100" x2="480" y2="100" stroke="#1A2D4A" stroke-width="1"/>
  <line x1="50" y1="150" x2="480" y2="150" stroke="#1A2D4A" stroke-width="1"/>
  <line x1="50" y1="200" x2="480" y2="200" stroke="#1A2D4A" stroke-width="1"/>
  <line x1="50" y1="250" x2="480" y2="250" stroke="#1A2D4A" stroke-width="1"/>
  <line x1="50" y1="300" x2="480" y2="300" stroke="#1A2D4A" stroke-width="1"/>
  <!-- Price line -->
  <polyline points="60,260 100,240 140,250 180,200 220,210 260,170 300,180 340,140 380,150 420,120 460,100" fill="none" stroke="#E8A838" stroke-width="2.5"/>
  <!-- Volume bars -->
  <rect x="60" y="290" width="20" height="30" fill="#2A7B4B" opacity="0.6" rx="2"/>
  <rect x="100" y="285" width="20" height="35" fill="#2A7B4B" opacity="0.6" rx="2"/>
  <rect x="140" y="295" width="20" height="25" fill="#C0392B" opacity="0.6" rx="2"/>
  <rect x="180" y="275" width="20" height="45" fill="#2A7B4B" opacity="0.6" rx="2"/>
  <rect x="220" y="288" width="20" height="32" fill="#C0392B" opacity="0.6" rx="2"/>
  <rect x="260" y="270" width="20" height="50" fill="#2A7B4B" opacity="0.6" rx="2"/>
  <rect x="300" y="282" width="20" height="38" fill="#2A7B4B" opacity="0.6" rx="2"/>
  <rect x="340" y="265" width="20" height="55" fill="#2A7B4B" opacity="0.6" rx="2"/>
  <rect x="380" y="280" width="20" height="40" fill="#C0392B" opacity="0.6" rx="2"/>
  <rect x="420" y="260" width="20" height="60" fill="#2A7B4B" opacity="0.6" rx="2"/>

  <!-- Order book panel -->
  <rect x="516" y="72" width="264" height="260" rx="8" fill="#111E35"/>
  <rect x="530" y="86" width="100" height="12" rx="3" fill="#2A4060"/>
  <!-- Bid rows -->
  <rect x="530" y="110" width="120" height="16" rx="2" fill="#2A7B4B" opacity="0.3"/>
  <rect x="530" y="132" width="100" height="16" rx="2" fill="#2A7B4B" opacity="0.25"/>
  <rect x="530" y="154" width="140" height="16" rx="2" fill="#2A7B4B" opacity="0.2"/>
  <rect x="530" y="176" width="90" height="16" rx="2" fill="#2A7B4B" opacity="0.15"/>
  <!-- Ask rows -->
  <rect x="530" y="210" width="110" height="16" rx="2" fill="#C0392B" opacity="0.3"/>
  <rect x="530" y="232" width="130" height="16" rx="2" fill="#C0392B" opacity="0.25"/>
  <rect x="530" y="254" width="80" height="16" rx="2" fill="#C0392B" opacity="0.2"/>
  <rect x="530" y="276" width="150" height="16" rx="2" fill="#C0392B" opacity="0.15"/>

  <!-- Bottom panels -->
  <rect x="20" y="346" width="370" height="134" rx="8" fill="#111E35"/>
  <rect x="34" y="360" width="80" height="10" rx="3" fill="#2A4060"/>
  <rect x="34" y="380" width="340" height="12" rx="2" fill="#1A2D4A"/>
  <rect x="34" y="400" width="340" height="12" rx="2" fill="#1A2D4A"/>
  <rect x="34" y="420" width="340" height="12" rx="2" fill="#1A2D4A"/>
  <rect x="34" y="440" width="340" height="12" rx="2" fill="#1A2D4A"/>
  <rect x="34" y="460" width="200" height="12" rx="2" fill="#1A2D4A"/>

  <rect x="406" y="346" width="374" height="134" rx="8" fill="#111E35"/>
  <rect x="420" y="360" width="80" height="10" rx="3" fill="#2A4060"/>
  <rect x="420" y="380" width="346" height="12" rx="2" fill="#1A2D4A"/>
  <rect x="420" y="400" width="346" height="12" rx="2" fill="#1A2D4A"/>
  <rect x="420" y="420" width="346" height="12" rx="2" fill="#1A2D4A"/>
  <rect x="420" y="440" width="346" height="12" rx="2" fill="#1A2D4A"/>
  <rect x="420" y="460" width="220" height="12" rx="2" fill="#1A2D4A"/>
</svg>
